<svg width="982" height="538" viewBox="0 0 982 538" fill="none" xmlns="http://www.w3.org/2000/svg">
<g clip-path="url(#clip0_2304_24111)">
<g opacity="0.45">
<line y1="-0.75" x2="1029.75" y2="-0.75" transform="matrix(0.424358 0.905495 -0.962455 0.271441 166.973 139.223)" stroke="url(#paint0_linear_2304_24111)" stroke-width="1.5"/>
<line y1="-0.75" x2="1029.75" y2="-0.75" transform="matrix(0.424358 0.905495 -0.962455 0.271441 322.727 95.2959)" stroke="url(#paint1_linear_2304_24111)" stroke-width="1.5"/>
<line y1="-0.75" x2="1029.75" y2="-0.75" transform="matrix(0.424358 0.905495 -0.962455 0.271441 478.481 51.3682)" stroke="url(#paint2_linear_2304_24111)" stroke-width="1.5"/>
<line y1="-0.75" x2="1029.75" y2="-0.75" transform="matrix(0.424358 0.905495 -0.962455 0.271441 634.235 7.44141)" stroke="url(#paint3_linear_2304_24111)" stroke-width="1.5"/>
<line y1="-1" x2="1029.75" y2="-1" transform="matrix(0.424358 0.905495 -0.962455 0.271441 945.744 -80.4131)" stroke="url(#paint4_linear_2304_24111)" stroke-width="2"/>
<line y1="-0.75" x2="1029.75" y2="-0.75" transform="matrix(0.424358 0.905495 -0.962455 0.271441 789.989 -36.4863)" stroke="url(#paint5_linear_2304_24111)" stroke-width="1.5"/>
<line y1="-0.75" x2="1295.37" y2="-0.75" transform="matrix(-0.962455 0.27144 -0.424357 -0.905495 1282.86 -62.4102)" stroke="url(#paint6_linear_2304_24111)" stroke-width="1.5"/>
<line y1="-0.75" x2="1295.37" y2="-0.75" transform="matrix(-0.962455 0.27144 -0.424357 -0.905495 1351.53 84.126)" stroke="url(#paint7_linear_2304_24111)" stroke-width="1.5"/>
<line y1="-0.75" x2="1295.37" y2="-0.75" transform="matrix(-0.962455 0.27144 -0.424357 -0.905495 1420.2 230.663)" stroke="url(#paint8_linear_2304_24111)" stroke-width="1.5"/>
<line y1="-0.75" x2="1295.37" y2="-0.75" transform="matrix(-0.962455 0.27144 -0.424357 -0.905495 1488.88 377.199)" stroke="url(#paint9_linear_2304_24111)" stroke-width="1.5"/>
<line y1="-1" x2="1295.37" y2="-1" transform="matrix(-0.962455 0.27144 -0.424357 -0.905495 1557.55 523.735)" stroke="url(#paint10_linear_2304_24111)" stroke-width="2"/>
</g>
</g>
<defs>
<linearGradient id="paint0_linear_2304_24111" x1="18.2257" y1="0.247806" x2="905.212" y2="0.247747" gradientUnits="userSpaceOnUse">
<stop stop-color="#91ADFA" stop-opacity="0"/>
<stop offset="0.461458" stop-color="#91ADFA"/>
<stop offset="1" stop-color="#91ADFA" stop-opacity="0"/>
</linearGradient>
<linearGradient id="paint1_linear_2304_24111" x1="18.2257" y1="0.247806" x2="905.212" y2="0.247747" gradientUnits="userSpaceOnUse">
<stop stop-color="#91ADFA" stop-opacity="0"/>
<stop offset="0.461458" stop-color="#91ADFA"/>
<stop offset="1" stop-color="#91ADFA" stop-opacity="0"/>
</linearGradient>
<linearGradient id="paint2_linear_2304_24111" x1="18.2257" y1="0.247806" x2="905.212" y2="0.247747" gradientUnits="userSpaceOnUse">
<stop stop-color="#91ADFA" stop-opacity="0"/>
<stop offset="0.461458" stop-color="#91ADFA"/>
<stop offset="1" stop-color="#91ADFA" stop-opacity="0"/>
</linearGradient>
<linearGradient id="paint3_linear_2304_24111" x1="18.2257" y1="0.247806" x2="905.212" y2="0.247747" gradientUnits="userSpaceOnUse">
<stop stop-color="#91ADFA" stop-opacity="0"/>
<stop offset="0.461458" stop-color="#91ADFA"/>
<stop offset="1" stop-color="#91ADFA" stop-opacity="0"/>
</linearGradient>
<linearGradient id="paint4_linear_2304_24111" x1="-77.431" y1="-1.58699" x2="1142.83" y2="-136.342" gradientUnits="userSpaceOnUse">
<stop stop-color="#354B7E" stop-opacity="0"/>
<stop offset="0.461458" stop-color="#354B7E"/>
<stop offset="1" stop-color="#354B7E" stop-opacity="0"/>
</linearGradient>
<linearGradient id="paint5_linear_2304_24111" x1="18.2257" y1="0.247806" x2="905.212" y2="0.247747" gradientUnits="userSpaceOnUse">
<stop stop-color="#91ADFA" stop-opacity="0"/>
<stop offset="0.461458" stop-color="#91ADFA"/>
<stop offset="1" stop-color="#91ADFA" stop-opacity="0"/>
</linearGradient>
<linearGradient id="paint6_linear_2304_24111" x1="22.9268" y1="0.244506" x2="1333.43" y2="-35.8332" gradientUnits="userSpaceOnUse">
<stop stop-color="#91ADFA" stop-opacity="0"/>
<stop offset="0.461458" stop-color="#91ADFA"/>
<stop offset="1" stop-color="#91ADFA" stop-opacity="0"/>
</linearGradient>
<linearGradient id="paint7_linear_2304_24111" x1="22.9268" y1="0.244506" x2="1333.43" y2="-35.8332" gradientUnits="userSpaceOnUse">
<stop stop-color="#91ADFA" stop-opacity="0"/>
<stop offset="0.461458" stop-color="#91ADFA"/>
<stop offset="1" stop-color="#91ADFA" stop-opacity="0"/>
</linearGradient>
<linearGradient id="paint8_linear_2304_24111" x1="22.9268" y1="0.244506" x2="1333.43" y2="-35.8332" gradientUnits="userSpaceOnUse">
<stop stop-color="#91ADFA" stop-opacity="0"/>
<stop offset="0.461458" stop-color="#91ADFA"/>
<stop offset="1" stop-color="#91ADFA" stop-opacity="0"/>
</linearGradient>
<linearGradient id="paint9_linear_2304_24111" x1="22.9268" y1="0.244506" x2="1333.43" y2="-35.8332" gradientUnits="userSpaceOnUse">
<stop stop-color="#91ADFA" stop-opacity="0"/>
<stop offset="0.461458" stop-color="#91ADFA"/>
<stop offset="1" stop-color="#91ADFA" stop-opacity="0"/>
</linearGradient>
<linearGradient id="paint10_linear_2304_24111" x1="22.9268" y1="0.244506" x2="1333.43" y2="-35.8332" gradientUnits="userSpaceOnUse">
<stop stop-color="#354B7E" stop-opacity="0"/>
<stop offset="0.461458" stop-color="#354B7E"/>
<stop offset="1" stop-color="#354B7E" stop-opacity="0"/>
</linearGradient>
<clipPath id="clip0_2304_24111">
<rect width="982" height="538" fill="white"/>
</clipPath>
</defs>
</svg>
