<svg version="1.2" xmlns="http://www.w3.org/2000/svg" viewBox="0 0 422 442" width="422" height="442"><style>.a{fill:#ffff9d}.b{fill:#b1b9c6}.c{fill:#678490}.d{fill:#91a2b5}.e{fill:#fff}.f{fill:#605c5d}.g{fill:#fd80a6}.h{fill:#f6608e}.i{fill:#ffbf8c}.j{fill:#ffaa74}.k{fill:#777677}.l{fill:#ffe5a4}.m{fill:#d4afb7}.n{fill:#b78e98}</style><path class="a" d="m414.2 236.8l4.1-2.8c5.3-3.6 4.4-11.7-1.6-14.1l-4.6-1.8c-12.7-5.1-19.2-19.4-14.7-32.3l1.7-4.7c2.1-6.1-3.4-12.1-9.6-10.5l-4.8 1.2c-13.3 3.4-27-4.3-30.9-17.5l-1.4-4.8c-1.8-6.1-9.8-7.8-13.9-2.8l-3.2 3.8c-8.8 10.6-24.3 12.4-35.2 4l-4-3c-5.1-3.9-12.5-0.6-12.9 5.9l-0.4 4.9c-0.8 13.7-12.4 24.3-26.1 24l-5-0.2c-6.4-0.1-10.5 7-7 12.4l2.6 4.2c7.4 11.6 4.3 27-7.1 34.8l-4 2.8c-5.3 3.6-4.4 11.7 1.6 14.1l4.6 1.8c12.7 5.1 19.2 19.4 14.6 32.3l-1.6 4.7c-2.2 6.1 3.3 12.1 9.6 10.5l4.8-1.2c13.3-3.4 26.9 4.3 30.9 17.5l1.4 4.7c1.8 6.2 9.8 7.8 13.9 2.9l3.2-3.9c8.8-10.5 24.3-12.3 35.2-3.9l4 3c5.1 3.9 12.5 0.5 12.9-5.9l0.3-4.9c0.9-13.8 12.5-24.3 26.2-24l5 0.1c6.4 0.2 10.4-6.9 7-12.3l-2.7-4.2c-7.3-11.6-4.2-27 7.1-34.8z"/><path class="b" d="m269.7 270.8l-86.3 6.2c0 0-54.1 53.1-54.1 80.5 0 34.9 38 63.1 84.9 63.1 37.2 0 68.9-17.9 80.3-42.7 14.4 5.6 27 4.9 32.4-2z"/><path class="c" d="m312.1 386.4c-17 0-38.4-11.3-55.1-29.3-1.8-1.9-1.7-4.9 0.3-6.7 1.9-1.8 4.9-1.7 6.7 0.3 12.6 13.5 32.7 26.8 49.2 26.2 3.3-0.2 7.6-0.9 10-4 1.6-2 4.6-2.4 6.7-0.8 2 1.6 2.4 4.6 0.8 6.7-3.7 4.6-9.6 7.3-17.1 7.6q-0.7 0-1.5 0z"/><path class="b" d="m292 8.2c-20.6-13.9-69.6 27.9-90.9 47.7-12.3 0.3-27.9 2.4-45.6 5.9-17.7 3.3-33 7.1-44.6 11.3-27.1-10.6-88.1-31.5-102-10.9-13.9 20.3 14.6 63.6 28.7 82.7-8.1 22.3-8.2 45.1-4.6 64q4.6 24.5 15.2 47.9c13.7 30.4 43.6 50.1 76.9 50.5q38.7 0.4 75.9-6.7 37.2-7.1 73-21.7c30.9-12.6 51.4-41.9 53-75.3q1.2-25.6-3.5-50.1c-3.6-18.9-12.1-40-27.8-57.8 6-22.9 16.6-73.6-3.7-87.5z"/><path class="d" d="m175.3 70.1c5.1 27.1 1.4 50.5-8.2 52.4-9.7 1.8-21.8-18.6-27-45.7q-1-5.6-1.6-10.8 17-4.1 34.3-6.6 1.4 5.2 2.5 10.7z"/><path class="d" d="m135.9 68.4c5.1 27.1 1.4 50.5-8.3 52.4-9.3 1.7-20.8-17.2-26.3-42.8 5.7-2.7 11.8-5 18-6.9q8.1-2.4 16.2-4.4 0.2 0.9 0.4 1.7z"/><path class="d" d="m211.8 56.7c4.4 25.9 0.6 47.9-8.7 49.7-9.7 1.8-21.8-18.6-26.9-45.7q-0.2-0.8-0.3-1.7 9.5-1.3 19.1-2.1c5.7-0.4 11.3-0.5 16.8-0.2z"/><path class="e" d="m279.7 53.7c0 0 4 5.8 5.8 12.8 1.7 6.5-1.3 12.3-6.1 15.4-13.2-10.3-28.6-17.9-45.1-22-0.5-3.6 0.3-7.4 2.7-10.6 9.6-12.8 23.5-27.3 35.8-24.8 21.4 4.3 6.9 29.2 6.9 29.2z"/><path class="e" d="m37 100c0 0-1.6 6.8-0.7 14 0.8 6.7 5.7 10.9 11.3 12 8.6-14.4 20.1-27.1 33.9-37-0.8-3.5-3-6.7-6.4-8.8-13.7-8.4-31.9-16.8-42.5-9.9-18.3 11.9 4.4 29.7 4.4 29.7z"/><path fill-rule="evenodd" class="c" d="m331.7 203.9c-0.8 17.2-6.4 33.8-16.3 47.9-9.9 14.1-23.6 25-39.6 31.5-24 9.8-48.9 17.2-73.9 22-23.6 4.5-47.9 6.7-72.4 6.7q-2.2 0-4.4 0c-17.3-0.2-34-5.3-48.4-14.7-14.4-9.5-25.8-22.8-32.9-38.6-7.1-15.8-12.3-32.3-15.5-48.9-2.7-14.2-4.8-38.3 3.9-64.2-17.2-23.7-41.9-64.5-27.3-86.1 7.4-10.8 24-13.5 50.9-8.2 19.6 3.8 40.5 11.1 55.1 16.8 11.2-4 25.8-7.6 43.7-11 17.9-3.5 32.8-5.4 44.6-5.9 11.5-10.6 28.3-25 45.1-35.8 23.1-14.8 39.5-18.4 50.3-11.1 21.6 14.6 13.6 61.7 6.3 90.1 17.7 20.9 24.6 44.1 27.3 58.2 3.2 16.7 4.4 33.9 3.5 51.3zm-12.8-49.5c-3.4-17.7-13.9-50.6-46.1-72.7-2.2-1.5-2.7-4.5-1.2-6.6 1.5-2.2 4.4-2.7 6.6-1.2 5.6 3.8 10.5 7.9 15 12.2 9.1-38.6 7.7-66-3.9-74-11.3-7.6-40.1 7.4-76.3 39.5 7.8 0.7 15.3 1.9 22.4 3.6 2.6 0.6 4.1 3.2 3.5 5.7-0.6 2.6-3.2 4.2-5.7 3.6-6.9-1.7-14.3-2.9-21.9-3.6-12.2-1-30.6 0.8-54.9 5.6-24.4 4.5-42.2 9.6-53.1 15-6.8 3.4-13.3 7.3-19.1 11.3-0.8 0.6-1.8 0.9-2.7 0.9-1.5 0-3-0.7-3.9-2-1.5-2.2-1-5.1 1.1-6.6 6-4.2 12.6-8.1 19.5-11.7-45.4-16.5-77.7-19.9-85.4-8.6-8 11.7 0.9 37.7 23.6 70.3 2.5-5.7 5.6-11.3 9.4-17 1.5-2.1 4.4-2.7 6.6-1.3 2.2 1.5 2.8 4.5 1.3 6.6-21.8 32.5-19.4 66.9-16.1 84.6 3.1 15.9 8.1 31.7 14.9 46.8 12.9 28.6 41.4 47.4 72.7 47.7 25.3 0.3 50.5-1.9 74.9-6.6 24.4-4.6 48.6-11.8 72.1-21.4 28.9-11.8 48.6-39.7 50-71.1 0.8-16.6-0.3-33.1-3.3-49z"/><path class="d" d="m262.3 207.8c-2.3 0-4.3-1.6-4.7-3.9-0.5-2.6 1.2-5 3.8-5.5l25.7-4.9c2.6-0.5 5.1 1.2 5.6 3.7 0.5 2.6-1.2 5.1-3.8 5.6l-25.8 4.9q-0.4 0.1-0.8 0.1z"/><path class="d" d="m82.4 242.1c-2.3 0-4.2-1.6-4.7-3.9-0.5-2.6 1.2-5.1 3.8-5.6l25.8-4.9c2.5-0.5 5 1.2 5.5 3.8 0.5 2.6-1.2 5.1-3.8 5.6l-25.7 4.9q-0.5 0.1-0.9 0.1z"/><path class="d" d="m91.7 265.4c-1.6 0-3.2-0.9-4.1-2.3-1.3-2.3-0.6-5.2 1.6-6.6l19.6-11.8c2.3-1.3 5.2-0.6 6.5 1.6 1.4 2.3 0.7 5.2-1.6 6.6l-19.6 11.8c-0.7 0.4-1.6 0.7-2.4 0.7z"/><path class="e" d="m211.5 155.3c-2.3 0-4.3-1.6-4.7-3.9-0.5-2.6 1.2-5.1 3.8-5.5l13.5-2.6c2.6-0.5 5.1 1.2 5.5 3.8 0.5 2.5-1.2 5-3.7 5.5l-13.5 2.6q-0.5 0.1-0.9 0.1z"/><path class="e" d="m122.5 172.2c-2.2 0-4.2-1.6-4.6-3.8-0.5-2.6 1.2-5.1 3.8-5.6l13.5-2.6c2.5-0.5 5 1.2 5.5 3.8 0.5 2.6-1.2 5.1-3.8 5.6l-13.5 2.5q-0.4 0.1-0.9 0.1z"/><path class="e" d="m204.4 198.3c7.7-1.5 14.2 5.8 12 13.3-3.4 11.5-13 20.8-25.6 23.2-12.6 2.5-24.9-2.5-32.4-11.9-4.9-6.2-1.5-15.4 6.2-16.9z"/><path fill-rule="evenodd" class="c" d="m220.9 213c-4 13.6-15.2 23.8-29.2 26.5q-3.6 0.7-7.3 0.7c-11.4 0-22.4-5.2-29.7-14.4-3.3-4.2-4.2-9.7-2.4-14.8 1.9-5 6.1-8.6 11.4-9.6l14-2.7-1.8-6.7-3 0.6q-0.4 0.1-0.9 0.1c-2.2 0-4.2-1.6-4.6-3.9-0.5-2.6 1.2-5.1 3.7-5.6l14.5-2.7c2.6-0.5 5.1 1.2 5.6 3.8 0.4 2.5-1.2 5-3.8 5.5l-2.1 0.4 1.8 6.6 16.4-3.1c5.2-1.1 10.5 0.7 14.1 4.7 3.6 3.9 4.9 9.4 3.3 14.6zm-10.3-8.2c-1.4-1.6-3.3-2.2-5.3-1.8l-39.8 7.7c-2 0.4-3.5 1.7-4.2 3.6-0.8 2-0.4 4 0.8 5.6 6.7 8.4 17.3 12.3 27.8 10.3 10.5-2.1 18.9-9.7 21.9-19.9 0.6-2 0.2-4-1.2-5.5z"/><path class="f" d="m100.7 214.9c-1.4 0-2.8-0.6-3.7-1.8-1.7-2.1-1.3-5 0.8-6.7 0.7-0.5 18.4-14.2 41.9-8.7 2.6 0.6 4.2 3.2 3.6 5.7-0.6 2.6-3.2 4.1-5.7 3.5-19-4.4-33.8 6.9-34 7-0.8 0.7-1.9 1-2.9 1z"/><path class="f" d="m228.2 188.6c-1.4 0-2.8-0.7-3.8-2-1.5-2.1-1.1-5 1-6.6 19.4-14.4 41.1-8.9 42-8.6 2.6 0.6 4.1 3.2 3.4 5.8-0.7 2.5-3.3 4-5.8 3.4-0.3-0.1-18.3-4.6-33.9 7-0.9 0.7-1.9 1-2.9 1z"/><path class="b" d="m337.9 361.9c28.8-30.4 9.9-61.2-8.4-67.2-23.7-7.8-49.1 21.8-34.5 43.9 14.6 22 42.9 23.3 42.9 23.3z"/><path class="c" d="m337.9 366.7c-1.2 0-2.3-0.4-3.3-1.3-1.9-1.8-1.9-4.8-0.1-6.7 9.2-9.8 13.9-20.4 13.5-30.8-0.1-2.6 1.9-4.8 4.5-4.9 2.6-0.1 4.8 1.9 4.9 4.5 0.4 9.1-2.1 23-16 37.7-1 1-2.2 1.5-3.5 1.5z"/><path class="g" d="m265.2 294.3c-26.1-1.8-40.4-61.3-27.2-72.8 13.1-11.4 26.8 15.6 26.8 15.6 0 0-1.4-61.4 26.2-57.1 27.5 4.4 5.1 61.1 5.1 61.1 0 0 21.6-16.5 31.3-5.3 9.8 11.2-11.6 62-62.2 58.5z"/><path fill-rule="evenodd" class="h" d="m270.1 299.2q-2.6 0-5.2-0.2c-13.1-0.9-25-13.7-32-34.2-5.6-16.8-7.4-38.7 1.9-46.9 3.9-3.3 8.3-4.6 12.8-3.7 5 1 9.4 4.5 12.9 8.4 1.1-13.9 4.5-33.6 14.8-42.6 4.6-4 10.3-5.6 16.4-4.7 6.2 1 11.1 4.3 14.1 9.6 6.8 12 2.7 32.4-1.1 45.6 9-4 19.6-5.6 26.3 2.2 5.1 5.9 4.5 17.7-1.7 30.2-8.9 17.9-29 36.3-59.2 36.3zm-4.6-9.6c28.5 1.9 47.2-14.7 55.3-31 5-10.1 4.8-17.7 3-19.7-5.5-6.4-20.2 2.4-24.8 5.9-1.7 1.3-4.1 1.3-5.8 0.1-1.7-1.3-2.3-3.6-1.5-5.6 3.9-9.8 12.5-38 5.8-49.7-1.6-2.8-3.9-4.3-7.3-4.9-3.4-0.5-6.1 0.2-8.6 2.4-10.6 9.3-12.3 39.1-12.1 49.9 0.1 2.2-1.4 4.1-3.6 4.7-2.1 0.5-4.4-0.5-5.4-2.5-2.8-5.5-9.2-14.6-14.7-15.7-1.1-0.2-2.7-0.2-4.7 1.6-5.2 4.6-3.8 23 0.8 36.7 4.4 12.9 12.9 27 23.6 27.8z"/><path class="i" d="m350.5 380.4l-14 9.5-69.1-101.1 14-9.5z"/><path fill-rule="evenodd" class="j" d="m336.5 394.7q-0.4 0-0.8-0.1c-1.3-0.2-2.4-1-3.1-2l-69.1-101.1c-0.7-1-1-2.3-0.7-3.6 0.2-1.2 0.9-2.3 2-3l13.9-9.5c2.2-1.5 5.1-1 6.6 1.2l69.1 101.1c1.5 2.2 0.9 5.1-1.2 6.6l-14 9.5c-0.8 0.6-1.7 0.9-2.7 0.9zm-62.5-104.6l63.8 93.2 6.1-4.2-63.8-93.2z"/><path class="k" d="m283.3 265.1c-7-10.2-19.3-14-27.5-8.3-8.3 5.6-9.3 18.4-2.3 28.7 7 10.2 19.4 13.9 27.6 8.3 8.2-5.6 9.2-18.5 2.2-28.7z"/><path fill-rule="evenodd" class="f" d="m272.4 301.2q-3.4 0-6.9-1.1c-6.3-1.8-11.9-6.1-15.9-11.9-8.5-12.4-6.9-28.3 3.5-35.4 5.2-3.5 11.7-4.4 18.3-2.4 6.2 1.9 11.9 6.2 15.9 12 3.9 5.9 5.9 12.6 5.4 19.1-0.6 6.9-3.7 12.7-8.9 16.2-3.4 2.3-7.3 3.5-11.4 3.5zm-7.9-42.3c-2.2 0-4.3 0.6-6.1 1.8-6 4.1-6.5 14-1 22.1 2.8 4.1 6.6 7 10.8 8.2 3.8 1.2 7.4 0.8 10.2-1.1 2.8-1.9 4.5-5.1 4.8-9.1 0.3-4.3-1-9-3.8-13-2.8-4.1-6.6-7-10.8-8.3q-2.1-0.6-4.1-0.6z"/><path class="b" d="m329.5 294.7c-23.7-7.8-49.1 21.8-34.5 43.9 14.6 22 38-1.9 38-1.9z"/><path class="c" d="m310.4 352.7q-1 0-2-0.1c-6.9-0.7-12.8-4.5-17.3-11.4-7.6-11.5-6.7-25.9 2.3-37.7 9.3-12.3 24.4-17.6 37.6-13.3 12.6 4.1 25.7 18.3 26.4 37.3 0.2 2.6-1.9 4.8-4.5 4.9-2.6 0.1-4.8-1.9-4.9-4.5-0.6-14.6-10.7-25.6-20-28.7-10.7-3.5-21.3 2.5-27 10-7.8 10.2-6.2 20.5-2 26.7 2.9 4.5 6.3 6.8 10.3 7.2 8 0.8 17.4-6.8 20.3-9.7 1.8-1.9 4.8-1.9 6.7-0.1 1.9 1.8 1.9 4.8 0.1 6.7-0.5 0.5-12.5 12.7-26 12.7z"/><path class="a" d="m90.8 272.6l25.2 14.9 105.7-20.5-25.2-14.9z"/><path class="l" d="m90.8 277.3c-2.3 0-4.2-1.5-4.7-3.8-0.5-2.6 1.2-5.1 3.8-5.6l105.6-20.5c2.6-0.5 5.1 1.2 5.6 3.8 0.5 2.6-1.2 5.1-3.8 5.6l-105.6 20.5q-0.5 0-0.9 0z"/><path class="m" d="m90.8 272.6l25.3 130.6 25.3 14.9-25.4-130.6z"/><path class="n" d="m221.7 271.7c-0.9 0-1.7-0.2-2.4-0.6l-25.3-14.9c-2.2-1.3-3-4.3-1.6-6.5 1.3-2.3 4.2-3 6.5-1.7l25.2 14.9c2.2 1.3 3 4.2 1.7 6.5-0.9 1.5-2.5 2.3-4.1 2.3z"/><path class="a" d="m116 287.5l25.4 130.6 105.6-20.5-25.3-130.6z"/><path class="l" d="m141.3 422.8c-2.2 0-4.2-1.5-4.6-3.8-0.5-2.6 1.2-5.1 3.7-5.6l101-19.6-23.5-121.2-101 19.6c-2.6 0.4-5.1-1.2-5.6-3.8-0.5-2.6 1.2-5.1 3.8-5.6l105.7-20.5c1.2-0.2 2.5 0 3.5 0.7 1.1 0.8 1.8 1.8 2 3.1l25.4 130.6c0.5 2.5-1.2 5-3.8 5.5l-105.6 20.5q-0.5 0.1-1 0.1z"/><path class="g" d="m222.3 380.9l-17.3-89.2-64.3 12.5 17.3 89.1z"/><path fill-rule="evenodd" class="h" d="m158 398.1c-0.9 0-1.8-0.3-2.6-0.8-1.1-0.7-1.8-1.8-2-3.1l-17.3-89.1c-0.5-2.6 1.2-5.1 3.7-5.6l64.3-12.4c1.2-0.3 2.5 0 3.5 0.7 1.1 0.7 1.8 1.8 2 3l17.3 89.2c0.5 2.5-1.1 5-3.7 5.5l-64.2 12.5q-0.5 0.1-1 0.1zm-11.7-90.2l15.5 79.9 54.9-10.7-15.5-79.8z"/><path fill-rule="evenodd" class="n" d="m141.4 422.8c-0.9 0-1.7-0.2-2.5-0.6l-25.2-14.9c-1.2-0.7-2-1.9-2.2-3.2l-25.4-130.6c-0.3-1.8 0.4-3.7 1.9-4.8 1.6-1.1 3.6-1.1 5.2-0.2l25.2 14.9c1.2 0.7 2 1.8 2.3 3.2l25.3 130.6c0.4 1.8-0.4 3.7-1.9 4.8-0.8 0.5-1.8 0.8-2.7 0.8zm-21-22.6l14.3 8.4-22.9-118.1-14.3-8.4z"/><path class="b" d="m105.9 386.7c-12.8 9.9-6.6 21.6 3.3 34.4 9.8 12.8 19.6 21.8 32.4 11.9 12.8-9.8 15.1-28.2 5.3-41-9.9-12.8-28.2-15.1-41-5.3z"/><path fill-rule="evenodd" class="c" d="m130.9 442c-11.6 0-20.5-11.6-25.5-18-6.7-8.7-20.8-26.9-2.4-41 7.2-5.6 16.1-8 25.1-6.8 9 1.1 17 5.7 22.6 12.9 11.4 14.9 8.6 36.3-6.2 47.7-4.9 3.7-9.4 5.2-13.6 5.2zm-7.2-56.6c-5.4 0-10.6 1.7-14.9 5.1-8.2 6.3-7.2 13 4.1 27.7 11.3 14.7 17.6 17.4 25.8 11.1 10.7-8.3 12.7-23.7 4.4-34.4-4-5.2-9.7-8.5-16.2-9.3q-1.6-0.2-3.2-0.2zm-17.8 1.3z"/></svg>