<svg version="1.2" xmlns="http://www.w3.org/2000/svg" viewBox="0 0 343 442" width="343" height="442"><style>.a{fill:#b1b9c6}.b{fill:#fff}.c{fill:#678490}.d{fill:#605c5d}.e{fill:#91a2b5}.f{fill:#65e1e9}.g{fill:#00d4d7}.h{fill:#d4afb7}.i{fill:#b78e98}.j{fill:#e3e3e3}</style><path class="a" d="m266.1 353.6c0-39-39.7-70.5-88.6-70.5-48.9 0-88.5 31.5-88.5 70.5 0 38.9 39.6 70.4 88.5 70.4 48.9 0 88.6-31.5 88.6-70.4z"/><path class="a" d="m317.5 59.3c-17.2-17.2-72 14.1-96.1 29.3-12-2-27.4-2.8-45.1-2.7-17.6-0.1-33 0.7-45 2.7-24.1-15.2-79-46.5-96.2-29.3-17 17.1 2.5 64 12.5 84.9-11.9 20-16.2 41.9-16.2 60.8q0 24.5 5.9 48.9c7.6 31.8 32.7 56.2 64.8 62.7q37.1 7.5 74.2 7.5 37.2 0 74.3-7.5c32-6.5 57.2-30.9 64.8-62.7q5.9-24.4 5.9-48.9c0-18.9-4.4-40.8-16.2-60.8 10-20.8 29.5-67.8 12.4-84.9z"/><path class="b" d="m297.4 100.9c0 0 2.8 6.3 3.2 13.4 0.5 6.6-3.5 11.6-8.7 13.7-10.8-12.4-24.2-22.5-39.4-29.5 0.2-3.5 1.7-7 4.6-9.7 11.6-10.5 27.7-21.9 39-17.3 19.8 8.1 1.3 29.4 1.3 29.4z"/><path class="c" d="m320.9 56c-9.1-9.1-25.6-8.6-50.6 1.4-18.2 7.3-36.9 18.1-50 26.3-11.4-1.8-26.1-2.6-43.9-2.6-25.2-0.1-44.2 1.6-56.5 5.1-7.6 2.2-14.9 4.9-21.7 7.9-2.4 1.1-3.5 3.9-2.4 6.3 1.1 2.4 3.9 3.5 6.3 2.4 6.3-2.9 13.2-5.4 20.4-7.4 11.5-3.3 29.6-4.9 53.9-4.8 24.2-0.1 42.3 1.5 53.8 4.8 7.2 2 14 4.5 20.4 7.4q1 0.4 2 0.4c1.8 0 3.5-1 4.3-2.8 1.1-2.4 0-5.2-2.4-6.3-6.5-2.9-13.4-5.4-20.7-7.5 40.6-24.2 70.9-33.3 80.4-23.9 9.7 9.7 6 36.2-9.8 71.7-3.5-4.9-7.5-9.8-12.1-14.5-1.8-1.8-4.8-1.8-6.7 0-1.9 1.8-1.9 4.9 0 6.7 26.9 27.2 30.9 60.8 30.9 78.4 0 15.9-1.9 32-5.7 47.8-7.2 29.9-31.2 53.1-61.2 59.2-24.3 4.9-48.9 7.4-73.3 7.4-24.3 0-48.9-2.5-73.3-7.4-29.9-6.1-54-29.3-61.1-59.2-3.8-15.8-5.7-31.9-5.7-47.8 0-17.6 4-51.2 30.9-78.4 1.9-1.8 1.8-4.9 0-6.7-1.9-1.8-4.9-1.8-6.7 0-29.4 29.7-33.7 66-33.7 85.1 0 16.6 2 33.5 5.9 50 4 16.5 12.5 31.4 24.6 43.2 12.2 11.7 27.3 19.7 43.9 23.1 25 5 50.3 7.6 75.2 7.6 25 0 50.3-2.6 75.2-7.6 16.6-3.4 31.8-11.4 44-23.1 12.1-11.8 20.6-26.7 24.5-43.2 4-16.6 6-33.4 6-50 0-14.1-2.4-37.7-15.5-61 5.2-11.2 11.8-27 15.6-42.5 5.2-21.6 3.4-36.9-5.2-45.5z"/><path class="d" d="m270.3 217.9c0-9-7.3-16.3-16.3-16.3-9 0-16.2 7.3-16.2 16.3 0 8.9 7.2 16.2 16.2 16.2 9 0 16.3-7.3 16.3-16.2z"/><path class="d" d="m147.4 217.9c0-9-7.2-16.3-16.2-16.3-9 0-16.3 7.3-16.3 16.3 0 8.9 7.3 16.2 16.3 16.2 9 0 16.2-7.3 16.2-16.2z"/><path class="e" d="m295.2 246.2h-25.7c-2.7 0-4.8-2.1-4.8-4.8 0-2.6 2.1-4.7 4.8-4.7h25.7c2.6 0 4.7 2.1 4.7 4.7 0 2.7-2.1 4.8-4.7 4.8z"/><path class="e" d="m290.5 270.3q-0.8 0-1.7-0.3l-21-7.8c-2.4-0.9-3.7-3.6-2.8-6.1 0.9-2.4 3.7-3.7 6.1-2.8l21 7.8c2.5 0.9 3.8 3.7 2.8 6.1-0.7 1.9-2.5 3.1-4.4 3.1z"/><path class="e" d="m115.7 246.2h-25.7c-2.6 0-4.7-2.1-4.7-4.8 0-2.6 2.1-4.7 4.7-4.7h25.7c2.6 0 4.8 2.1 4.8 4.7 0 2.7-2.2 4.8-4.8 4.8z"/><path class="e" d="m94.7 270.3c-1.9 0-3.7-1.2-4.4-3.1-1-2.4 0.3-5.2 2.8-6.1l21-7.8c2.4-0.9 5.2 0.4 6.1 2.8 0.9 2.5-0.4 5.2-2.8 6.1l-21 7.8q-0.9 0.3-1.7 0.3z"/><path class="c" d="m221 216.6c-2.5-0.6-5.1 1-5.7 3.5-1.1 4-4.7 6.9-8.9 6.9-5 0-9.1-4.1-9.1-9.1h2.5c2.6 0 4.8-2.2 4.8-4.8 0-2.6-2.2-4.7-4.8-4.7h-14.4c-2.6 0-4.8 2.1-4.8 4.7 0 2.6 2.2 4.8 4.8 4.8h2.4c0 5-4 9.1-9 9.1-4.2 0-7.9-2.9-8.9-6.9-0.6-2.5-3.2-4.1-5.7-3.5-2.6 0.7-4.1 3.3-3.5 5.8 2.1 8.3 9.5 14.1 18.1 14.1 5.4 0 10.4-2.4 13.8-6.2 3.4 3.8 8.4 6.2 13.8 6.2 8.6 0 16-5.8 18.1-14.1 0.6-2.5-0.9-5.1-3.5-5.8z"/><path class="f" d="m196.3 41.1l-40.8-35.4c0 0-33.9-5.9-94.5 31.2-60.7 37.1-55.1 70.6-55.1 70.6l13.8 41.7-1.5 60c0 0 73.7 1.4 149.3-47.3 75.7-48.7 90.9-99.7 90.9-99.7z"/><path fill-rule="evenodd" class="g" d="m262.9 63.6c-0.6 2.1-16.5 53.2-92.8 102.3-39.7 25.6-78.8 37.2-104.6 42.6-25.2 5.1-42.6 5.5-46.5 5.5q-0.7 0-0.9-0.1c-1.2 0-2.4-0.5-3.3-1.4-0.9-0.9-1.4-2.2-1.3-3.4l1.4-59.2-13.5-41q-0.1-0.3-0.2-0.7c-0.3-1.5-5.4-37 57.3-75.4 61.5-37.6 96.3-32 97.8-31.7 0.8 0.1 1.6 0.5 2.3 1l40.1 34.8 61.2 20.8c2.4 0.8 3.7 3.4 3 5.9zm-252.4 42.8l12.3 37c23.4-6.5 136-40.7 167.6-101.1l-36.9-32c-6.4-0.5-38.2-1.1-90.1 30.6-29.7 18.3-42.5 35.3-48 46.4-5.2 10.4-5 17.6-4.9 19.1zm241.7-41.3l-53.5-18.2c-15.5 29.5-49.6 56.3-101.4 79.7-32.7 14.7-62.9 23.5-72.9 26.3l-1.3 51.4c17.4-0.7 79.2-6.1 141.9-46.4 60.5-39 81.6-79.7 87.2-92.8z"/><path class="g" d="m23.1 108.3q0.6 0 1.2-0.1c101.7-26.7 127.7-77.3 128.7-79.4 1.2-2.4 0.2-5.2-2.1-6.4-2.4-1.1-5.2-0.2-6.4 2.2-0.1 0.1-6.3 12.3-24.4 27.4-16.7 14.1-47.4 33.7-98.2 47-2.5 0.6-4 3.2-3.4 5.8 0.6 2.1 2.5 3.5 4.6 3.5z"/><path class="h" d="m131.2 430.3l1.6 1.6c6.6 7 17.6 7.2 24.6 0.5 3.3-3.2 5.2-7.6 5.3-12.2 0.1-8.7 5.2-16.5 13-20.2l4.1-1.9c28.4-13.5 50.3-37.6 61-67.2l-26.6-27.6-12.4 19.6c-10.7 16.7-24.4 31.4-40.3 43.3l-16.7 12.5c-3.8 2.9-7.2 6.3-10 10.2l-6.1 8.7c-7.1 10.1-6.1 23.8 2.5 32.7z"/><path class="i" d="m145.3 442c-5.8 0-11.6-2.3-15.9-6.8l-1.6-1.6c-10.2-10.5-11.4-26.8-3-38.8l6.2-8.6c3-4.3 6.7-8.1 11-11.3l16.7-12.5c15.5-11.6 28.6-25.7 39.1-42.1l12.4-19.5c1.4-2.2 4.3-2.9 6.6-1.5 2.2 1.4 2.8 4.4 1.4 6.6l-12.4 19.5c-11.1 17.3-25 32.3-41.5 44.6l-16.6 12.5c-3.5 2.6-6.5 5.7-9 9.2l-6.1 8.6c-5.8 8.2-5 19.5 2 26.7l1.6 1.6c4.8 5.1 12.8 5.2 17.9 0.4 2.4-2.4 3.8-5.5 3.8-8.9 0.2-10.5 6.2-19.9 15.8-24.4l4-1.9c27.5-13 48.3-35.9 58.7-64.5 0.8-2.5 3.6-3.7 6-2.8 2.5 0.9 3.8 3.6 2.9 6-11.2 31-33.8 55.8-63.5 69.9l-4.1 1.9c-6.2 2.9-10.2 9.1-10.3 16-0.1 5.9-2.5 11.4-6.7 15.5-4.3 4.1-9.9 6.2-15.4 6.2z"/><path class="a" d="m247.4 372.8c21.6 1.6 38.4 13.7 37.4 27-1 13.4-19.3 22.9-40.9 21.3-21.6-1.6-38.4-13.7-37.4-27 1-13.4 19.3-22.9 40.9-21.3z"/><path class="a" d="m196 409.2c12.2 8.8 21 0.1 29.7-12 8.8-12.2 14.2-23.3 2-32-12.2-8.8-29.1-6-37.9 6.2-8.7 12.1-5.9 29.1 6.2 37.8z"/><path fill-rule="evenodd" class="c" d="m289.5 400.2c-1.1 15-18.6 25.8-40.9 25.8q-2.5 0-5.1-0.2c-11.5-0.8-22.2-4.5-29.9-10.2-2.4 1.2-5.1 1.9-8 1.9-3.8 0-7.9-1.2-12.3-4.4-7-5-11.5-12.4-12.9-20.8-1.4-8.4 0.6-16.8 5.6-23.7 4.9-6.9 12.3-11.5 20.7-12.9 8.4-1.3 16.8 0.6 23.8 5.6q4.2 3.1 6.5 6.8 5.3-0.5 10.8-0.1c24.6 1.8 42.9 15.9 41.7 32.2zm-42.4-22.7q-3.9-0.3-7.6 0 0 3.8-1.7 8.2c-0.9 2.4-3.6 3.7-6.1 2.7-2.4-0.9-3.7-3.6-2.7-6.1 2.2-5.9 1-9.6-4.1-13.3-4.8-3.5-10.8-4.9-16.7-3.9-5.9 1-11 4.2-14.5 9-3.5 4.9-4.9 10.8-3.9 16.7 0.9 5.9 4.1 11.1 9 14.6 5.7 4.1 10.8 4.4 19.4-6.2 1.6-2 4.6-2.3 6.7-0.6 2 1.6 2.3 4.6 0.6 6.6-0.8 1.1-2.1 2.7-3.8 4.4 6.1 3.7 14 6.1 22.5 6.8 18.7 1.3 35.1-6.4 35.8-16.9 0.8-10.6-14.3-20.6-32.9-22z"/><path class="b" d="m240.4 266.8l-22.7 21.9c-5.1 4.8-5.2 12.9-0.3 17.9l28.2 29.3 41-39.5-28.3-29.3c-4.9-5-12.9-5.2-17.9-0.3z"/><path class="b" d="m245.6 335.9l9.2 45.7c0.8 4.1 4.8 6.8 8.8 6 9.3-1.8 26.2-7.6 45.8-26.5 19.6-18.9 26.1-35.6 28.2-44.8 0.9-4.1-1.7-8.1-5.7-9.1l-45.3-10.8"/><path fill-rule="evenodd" class="j" d="m342.2 317.4c-2.5 10.9-9.7 28-29.5 47.1-19.8 19.1-37.1 25.6-48.2 27.8q-1.1 0.2-2.3 0.2c-5.7 0-10.9-4.1-12.1-10l-8.8-44.3-27.3-28.3c-3.3-3.3-5-7.8-4.9-12.4 0-4.7 1.9-9 5.3-12.3l22.7-21.8q0 0 0 0c6.9-6.7 18-6.5 24.6 0.4l27.3 28.3 44 10.5c6.6 1.6 10.7 8.2 9.2 14.8zm-121.4-14.1l25 25.9 34.1-32.9-25-25.9c-3-3.1-8.1-3.2-11.2-0.2l-22.7 21.9c-1.5 1.5-2.4 3.4-2.4 5.6-0.1 2.1 0.7 4.1 2.2 5.6zm110 8.6l-42.8-10.2-37.2 35.8 8.6 43.2c0.4 1.5 1.8 2.5 3.4 2.2 8-1.5 24.3-6.8 43.3-25.2 19.1-18.4 25-34.5 26.9-42.5 0.3-1.5-0.7-3-2.2-3.3z"/><path class="a" d="m102.1 316.6c-54.4 32.7-66.7 61.3-57.9 81.1 10.9 24.5 114.4 31 120.3-2.9 5.8-33.9-75.5-23.3-75.5-23.3z"/><path class="c" d="m109.1 422.9c-28.6 0-62.1-7.3-69.2-23.2-6.7-15.1-7.9-46.5 59.7-87.2 2.3-1.3 7.2 6.8 4.9 8.2-44.8 26.9-65.2 54.3-55.9 75.1 5.3 12.1 44.9 20.6 77 16.6 20.1-2.5 32.6-9.2 34.2-18.4 0.7-4-0.2-7.2-2.7-9.8-5.5-5.8-19.1-9.1-38.3-9.5-15.4-0.3-29.1 1.4-29.2 1.5-2.6 0.3-5-1.5-5.4-4.1-0.3-2.6 1.5-5 4.2-5.4 5.9-0.7 58.4-6.9 75.6 10.9 4.6 4.8 6.4 11 5.2 18-2.4 13.8-17.5 23.2-42.5 26.3-5.4 0.6-11.4 1-17.6 1z"/></svg>