<svg version="1.2" xmlns="http://www.w3.org/2000/svg" viewBox="0 0 368 442" width="368" height="442"><style>.a{fill:#93f6f8}.b{fill:#ffbf8c}.c{fill:#ffaa74}.d{fill:#ffff9d}.e{fill:#ffe5a4}.f{fill:#b1b9c6}.g{fill:#678490}.h{fill:#fd80a6}.i{fill:#91a2b5}.j{fill:#fff}.k{fill:#605c5d}.l{fill:#777677}</style><path class="a" d="m68.5 50.7c3.4 0 6.6 0.7 9.6 1.9 5.8-8.3 15.4-13.7 26.3-13.7 13.8 0 25.6 8.8 30.1 21.1 2.6-1.1 5.5-1.7 8.5-1.7 12.4 0 22.4 10 22.4 22.4 0 12.3-10 22.3-22.4 22.3-6.9 0-68 0-74.5 0-14.4 0-26.1-11.7-26.1-26.1 0-14.5 11.7-26.2 26.1-26.2z"/><path class="a" d="m69.4 119.8c-1.8 0-3.6 0.4-5.3 1-3.2-4.5-8.5-7.5-14.5-7.5-7.7 0-14.3 4.8-16.7 11.7-1.5-0.7-3.1-1-4.8-1-6.8 0-12.4 5.6-12.4 12.4 0 6.9 5.6 12.4 12.4 12.4 3.9 0 37.8 0 41.3 0 8.1 0 14.6-6.5 14.6-14.5 0-8-6.5-14.5-14.6-14.5z"/><path class="a" d="m19.1 345.3c0-30.1 72.8-54.6 162.6-54.6 89.9 0 162.7 24.5 162.7 54.6 0 30.2-72.8 54.6-162.7 54.6-89.8 0-162.6-24.4-162.6-54.6z"/><path class="b" d="m23.3 270.8l16.1 9.1 74.2-131.1c2.5-4.4 1-10-3.5-12.5-4.4-2.5-10-1-12.5 3.4z"/><path fill-rule="evenodd" class="c" d="m39.4 284.7c-0.8 0-1.6-0.2-2.4-0.6l-16-9.1c-1.1-0.7-1.9-1.7-2.3-2.9-0.3-1.2-0.2-2.5 0.5-3.6l74.2-131.1c1.9-3.2 4.9-5.6 8.5-6.6 3.6-1 7.3-0.5 10.6 1.3 3.2 1.9 5.6 4.9 6.6 8.5 1 3.6 0.5 7.3-1.3 10.6l-74.3 131.1c-0.9 1.5-2.5 2.4-4.1 2.4zm-9.6-15.7l7.8 4.5 71.9-127c0.6-1 0.7-2.2 0.4-3.4-0.3-1.2-1.1-2.1-2.1-2.7-1-0.6-2.2-0.7-3.4-0.4-1.2 0.3-2.1 1-2.7 2.1z"/><path class="d" d="m20.3 315c19.7 2.7 38.2 4.7 55.8 6 27 2.1 51.5 2.5 73.8 1.8 120.4-3.9 175.3-43.1 196.7-65 7.5-7.6 7.2-19.9-0.6-27.2-19.1-18-58.1-51.3-101.6-68.3 0 0-85.5 9.5-126.5 25.2-59.7 22.8-95.6 71.3-111.1 101.5-5.7 11 1.2 24.3 13.5 26z"/><path class="e" d="m297.4 278l-31.7-24.9 5.9-7.4 31.7 24.8z"/><path class="f" d="m54.1 302.5q15.2 1.8 29.9 2.9 1.6 0.2 3.2 0.3c25.1 1.8 48.9 2.3 71.3 1.4q1.6-0.1 3.3-0.2 1.1 0 2.1-0.1 1.1 0 2.2-0.1c11.5-0.6 22.3-1.6 32.5-2.8q3.4-0.5 6.8-0.9c19.5-2.8 36.5-6.6 51.3-11.1 17.5-19.7 9.6-40.7 12.5-59l-96.5-19.7c-5.7 20.4-61.3 16.5-54.2 58.4-21 4.2-55.3 13.7-64.4 30.9z"/><path class="d" d="m11.5 311.3c2 1.9 71.4 66.3 186.3 58.8 89-5.9 141.2-65.5 154.2-122.8h-0.2c-0.5 3.8-2.3 7.5-5.1 10.5-21.5 21.9-76.4 61.1-196.8 65-22.3 0.7-46.8 0.3-73.8-1.8-17.6-1.3-36.1-3.2-55.8-6-3.4-0.4-6.4-1.8-8.8-3.7z"/><path fill-rule="evenodd" class="e" d="m356.7 248.3c-7.2 31.5-25 61-50.1 83.3-28.9 25.5-66.4 40.4-108.5 43.2q-9.5 0.6-18.6 0.6c-52.5 0-94-14.6-120.7-27.6-30.1-14.8-47.4-30.2-50.2-32.8-2.5-1.9-4.5-4.4-6-7.3-3.5-6.6-3.5-14.2-0.1-20.8 4.9-9.6 11.1-19.6 18-29q0 0 0 0c17.8-24.2 48.8-56.9 95.7-74.8 41.1-15.7 124.1-25.2 127.6-25.6 0.8 0 1.6 0.1 2.3 0.3 44.1 17.3 83.6 50.9 103.2 69.4 4.7 4.4 7.4 10.4 7.5 16.9q0 1.2-0.1 2.3 0.2 1 0 1.9zm-345.7 55c2 3.9 5.6 6.4 9.9 7 18.9 2.6 37.6 4.6 55.5 6 25.7 1.9 50.4 2.5 73.4 1.8 32.1-1.1 61.9-4.8 88.4-11 57.5-13.6 88.9-36.1 105-52.7 2.7-2.7 4.2-6.3 4.1-10.2-0.1-3.8-1.7-7.5-4.5-10.1-18.9-17.9-56.9-50.1-99.1-67-10.3 1.2-86.7 10.5-124.1 24.8-44.8 17.1-74.4 48.4-91.4 71.6q0 0 0 0c-6.6 9-12.6 18.6-17.2 27.7-2 3.9-2 8.3 0 12.1zm328.3-32.3c-19 15.7-49.9 33.8-99 45.3-27 6.4-57.4 10.2-90.2 11.3q-9.8 0.3-20 0.3c-17.4 0-35.6-0.7-54.4-2.1-14.1-1.1-28.7-2.6-43.4-4.4 7.9 5.4 18.3 11.8 31 18 28.7 14 75.2 29.8 134.2 25.9 39.9-2.6 75.5-16.7 102.8-40.9 16.9-14.9 30.3-33.4 39-53.4z"/><path class="f" d="m211.1 215.3l-46.6-34.3c-23.3 8.8-52.4-2.7-64.2-8.2-2.5-3.9-6.3-7-11.1-8.6-11.2-3.8-15.9 4.8-19.7 16.1-3.9 11.3-5.4 21 5.9 24.8 8.2 2.8 16.8 0.4 22.4-5.5 26.3 20 54.9 23.1 54.9 23.1z"/><path class="g" d="m58.3 304.8l-8.4-4.5c9.1-17.1 38.6-27 63.3-32.5-1.9-25.8 19.3-35.2 35.1-42.1 9.4-4.1 18.2-8.1 19.9-13.8l9.1 2.6c-2.8 10-13.7 14.8-25.2 19.9-16.8 7.4-32.6 14.4-28.9 36.4 0.4 2.5-1.3 4.9-3.8 5.4-32.8 6.7-55.1 17.1-61.1 28.6z"/><path class="g" d="m79.8 303.1c4.5-8.1 17.7-14.6 40.6-19.7 16-3.7 30.6-5.2 31.3-5.3 2.6-0.3 4.9 1.6 5.2 4.2 0.3 2.6-1.6 5-4.2 5.2-0.2 0-14.8 1.6-30.3 5.1-26.8 6.1-32.9 12.6-34.3 15.1-0.8 1.6-9.6-2.3-8.3-4.6z"/><path fill-rule="evenodd" class="g" d="m104.7 198.5c25.8 17.4 56.5 21.9 56.8 21.9l-1.3 9.5c-1.4-0.2-34.1-5.1-61.9-24.3q-2 1.5-4.3 2.7c-3.7 1.8-7.7 2.7-11.7 2.7-2.8 0-5.7-0.5-8.4-1.4-8.8-3-11.3-9-11.9-13.5-0.7-5.6 1.1-11.9 3-17.3 2.5-7.5 8.4-24.9 25.8-19.1 5.1 1.8 9.5 5 12.7 9.3 11.6 5.4 38.4 15.5 59.3 7.6l3.3 8.9c-6.6 2.5-13.6 3.5-20.5 3.5-13.7 0-27.3-3.9-37.2-7.6 0.5 3.9 0.1 7.9-1.2 11.7q-0.9 2.9-2.5 5.4zm-6.5-8.4c1.5-4.3 1.2-8.9-0.8-12.9-2-4-5.4-7-9.7-8.5-1.2-0.4-2.4-0.6-3.5-0.6-3.7 0-6.7 3.2-10.2 13.7-1.4 4.2-3 9.4-2.5 13.1 0.2 2.1 1.1 4.2 5.4 5.7 4.3 1.4 8.8 1.1 12.9-0.9 4-1.9 7-5.4 8.4-9.6z"/><path class="f" d="m153.2 6.6c15.5-9.7 50.5 22.4 65.6 37.6 9.1 0.6 20.6 2.6 33.5 5.6 13 2.9 24.2 6.1 32.6 9.6 20.3-7.1 65.8-20.8 75.5-5.3 9.7 15.4-12.5 46.5-23.4 60.2 5.3 16.6 4.8 33.5 1.6 47.3q-4.1 18-12.5 34.9c-10.9 22.1-33.5 35.7-58.1 35.1q-28.5-0.7-55.7-7-27.3-6.2-53.3-18c-22.4-10.1-36.7-32.3-37-56.9q-0.2-18.9 3.9-36.9c3.2-13.8 10.1-29.2 22.1-41.8-3.8-17-10.2-54.8 5.2-64.4z"/><path class="g" d="m195.6 145.6l-1.6 6.4c-0.7 3-0.6 6.1 0.2 8.8 1.6 5.7 6.1 10.4 12.3 11.9 6.1 1.5 12.3-0.5 16.4-4.8 2-2.1 3.5-4.7 4.2-7.7l1.6-6.4c-1.7 0.4-3.6 0.4-5.4-0.1-6.3-1.5-10.2-7.9-8.6-14.2-1.6 6.3-8 10.2-14.3 8.6-1.8-0.5-3.5-1.3-4.8-2.5z"/><path class="h" d="m193.4 163.9c1.7 5.6 6.2 10.3 12.3 11.8 6.2 1.5 12.3-0.5 16.4-4.8-1.6-5.6-6.1-10.3-12.3-11.8-6.1-1.5-12.3 0.5-16.4 4.8z"/><path class="i" d="m237.5 55.4c-4.5 19.8-2.4 37.2 4.6 38.8 7.1 1.7 16.6-13.1 21.1-32.9q1-4.1 1.5-8-12.4-3.4-25.1-5.7-1.2 3.8-2.1 7.8z"/><path class="i" d="m266.6 55.2c-4.5 19.8-2.4 37.2 4.7 38.9 6.8 1.5 15.8-12.1 20.5-30.9q-6.2-3.2-13.1-5.5-5.8-2-11.8-3.7-0.1 0.6-0.3 1.2z"/><path class="i" d="m211 44.5c-4 19-1.8 35.3 5 36.9 7.1 1.6 16.6-13.1 21.1-32.9q0.2-0.7 0.3-1.3-7-1.2-14.1-2.1-6.2-0.7-12.3-0.6z"/><path class="j" d="m161 40.5c0 0-3.1 4.1-4.6 9.3-1.5 4.7 0.6 9 4 11.4 10.1-7.2 21.6-12.3 33.9-14.9 0.5-2.7 0-5.5-1.7-7.9-6.8-9.7-16.6-20.8-25.8-19.3-15.8 2.6-5.8 21.4-5.8 21.4z"/><path class="j" d="m338.6 81.2c0 0 1 5.1 0.2 10.4-0.8 4.9-4.6 7.9-8.7 8.5-5.9-10.9-14-20.5-24-28.2 0.7-2.6 2.4-4.9 5-6.3 10.3-5.8 24-11.5 31.6-6.2 13.1 9.3-4.1 21.8-4.1 21.8z"/><path fill-rule="evenodd" class="g" d="m360.7 87c-5.3 10.6-12.7 20.9-18.4 28.3 5.6 19.3 3.4 37 1 47.4-2.8 12.3-7.2 24.3-12.9 35.9-10.9 21.9-32.8 36.2-56.8 37.7-0.5 4.2-0.4 8.8-0.3 13.5 0.2 14.1 0.5 30-13 45.3l-7.1-6.3c11-12.5 10.8-25.3 10.6-38.8-0.1-4.6-0.2-9.2 0.2-13.8-17.9-0.7-35.6-3-52.8-6.9-18.4-4.3-36.6-10.4-54.1-18.3-23.9-10.9-39.6-34.9-39.8-61.2-0.2-13 1.2-25.7 4-38 2.4-10.4 8.1-27.3 21.6-42.3-2-9.1-4.1-21.6-4.2-33.4-0.3-17.1 3.8-28.4 12-33.5 8.6-5.4 21.1-2.3 38.2 9.6 12 8.3 23.8 19.3 32 27.4 8.7 0.7 19.6 2.6 32.5 5.6 12.9 2.9 23.5 6 31.6 9.1 30.9-10.6 69-19.4 79.4-2.7 5.2 8.2 3.9 20.1-3.7 35.4zm-4.3-30.4c-4.8-7.7-27.5-6.1-59.1 3.7 4.2 2.4 8.1 5 11.7 7.8 2.1 1.6 2.5 4.5 0.9 6.6-0.9 1.3-2.3 1.9-3.7 1.9-1 0-2-0.3-2.9-1-4.2-3.1-8.7-6-13.6-8.7-7.8-4.3-20.7-8.5-38.4-12.4-17.7-4.2-31.1-6.1-40-5.6-5.6 0.3-11 1-16.1 2-2.6 0.5-5.1-1.2-5.6-3.8-0.5-2.5 1.2-5 3.8-5.5 4.4-0.9 9.1-1.6 13.9-1.9-24.1-22.6-43.9-33.9-51.6-29.1-8 5-9.7 24.3-4.7 51 3-2.6 6.3-5 9.9-7.3 2.2-1.4 5.1-0.8 6.5 1.5 1.4 2.2 0.8 5.1-1.4 6.5-24 15.2-32.5 38.9-35.4 51.6-2.7 11.6-4 23.6-3.8 35.8 0.2 22.6 13.6 43.3 34.2 52.6 16.9 7.7 34.5 13.6 52.3 17.7 17.8 4.1 36.2 6.4 54.8 6.9 22.6 0.5 43.7-12.2 53.8-32.5 5.4-10.9 9.5-22.3 12.1-33.9 2.9-12.7 5.6-37.7-9.4-61.8-1.3-2.2-0.7-5.2 1.6-6.5 2.2-1.4 5.1-0.7 6.5 1.5 2.3 3.6 4.2 7.3 5.7 10.9 16.2-21.9 23-39.9 18-48z"/><path class="i" d="m153.7 150.4q-0.5 0-1.1-0.1l-18.8-4.3c-2.6-0.6-4.2-3.2-3.6-5.7 0.6-2.6 3.2-4.2 5.7-3.6l18.9 4.3c2.5 0.6 4.1 3.2 3.5 5.7-0.5 2.2-2.4 3.7-4.6 3.7z"/><path class="i" d="m134.2 164.6c-2.3 0-4.4-1.7-4.7-4.1-0.3-2.6 1.5-5 4.1-5.4l16.7-2.1c2.6-0.4 5 1.5 5.4 4.1 0.3 2.6-1.5 4.9-4.1 5.3l-16.8 2.2q-0.3 0-0.6 0z"/><path class="i" d="m285.4 180.6q-0.6 0-1.1-0.1l-18.8-4.3c-2.6-0.6-4.2-3.2-3.6-5.7 0.6-2.6 3.1-4.2 5.7-3.6l18.8 4.3c2.6 0.6 4.2 3.2 3.6 5.7-0.5 2.2-2.5 3.7-4.6 3.7z"/><path class="i" d="m277.9 197.5c-0.9 0-1.8-0.2-2.6-0.7l-14.1-9.3c-2.2-1.4-2.8-4.4-1.4-6.6 1.4-2.2 4.4-2.8 6.6-1.3l14.1 9.2c2.2 1.4 2.8 4.4 1.4 6.6-1 1.4-2.5 2.1-4 2.1z"/><path fill-rule="evenodd" class="g" d="m233 156.1l-1.3 5.2c-2.4 10-11.3 16.6-21.1 16.6q-2.6 0-5.3-0.6c-11.6-2.9-18.8-14.7-15.9-26.4l1.3-5.2c0.3-1.2 1.1-2.3 2.1-2.9 1.1-0.7 2.4-0.9 3.6-0.6l5.2 1.3c3.4 0.8 6.8-1 8.1-4.1l-0.7-0.2c-2.6-0.6-4.2-3.1-3.6-5.7 0.6-2.6 3.2-4.2 5.7-3.6l10.6 2.5c2.6 0.5 4.2 3.1 3.6 5.6-0.5 2.2-2.5 3.7-4.7 3.7q-0.5 0-1-0.1l-0.5-0.1c-0.1 1.5 0.2 3.1 1 4.4 1 1.6 2.5 2.8 4.3 3.2l5.1 1.3c2.6 0.6 4.1 3.2 3.5 5.7zm-10.4 2.4l-0.5-0.2c-4.4-1.1-8-3.9-10.2-7.6-3.6 2.3-8.1 3.1-12.6 2l-0.5-0.1-0.2 0.6c-1.6 6.6 2.4 13.2 9 14.9 6.6 1.6 13.3-2.5 14.9-9z"/><path class="k" d="m233.4 118.4l-3.4 13.7c-3.4 13.8 4.8 27.9 18.4 31.8q0.5 0.2 1 0.3l17.2 4.2q1.2 0.3 2.5 0.5c11.7 1.6 23-5.9 25.9-17.7l4.1-16.5c1.5-6.1-2.2-12.2-8.2-13.7l-43.9-10.8c-6-1.5-12.1 2.2-13.6 8.2z"/><path class="l" d="m244.6 124c0.4 12.4 9.7 9.8 10.1 22.2 0.3 8.4-3.7 12.3-6.3 17.7q0.5 0.2 1 0.3l17.2 4.2q1.2 0.3 2.5 0.5c1.5-8.7 8.4-12.1 8-22.8-0.5-12.5-9.7-9.9-10.2-22.3-0.1-3.4 0.5-6 1.4-8.3l-19.7-4.9c-2.2 3.6-4.2 7.3-4 13.4z"/><path class="k" d="m140.9 95.6l-4.1 16.6c-3.1 12.6 4.6 25.3 17.2 28.4l17.1 4.2q2.6 0.7 5.2 0.8c12.4 0.6 23.8-7.6 26.9-20.1l3.4-13.7c1.5-6-2.2-12.1-8.3-13.6l-43.8-10.8c-6-1.5-12.1 2.2-13.6 8.2z"/><path class="l" d="m151.7 101.1c0.5 12.4 9.7 9.8 10.2 22.2 0.3 8.3-3.8 12.2-6.4 17.7l15.6 3.8q2.6 0.7 5.2 0.8c1.7-8.5 8.3-11.9 7.9-22.5-0.4-12.4-9.7-9.8-10.1-22.2-0.2-3.4 0.4-6.1 1.4-8.4l-19.8-4.8c-2.1 3.6-4.2 7.3-4 13.4z"/><path fill-rule="evenodd" class="e" d="m360 143.8q-0.7 0.2-1.3 0.2c-2.1 0-4-1.4-4.6-3.4l-2.6-8.6c-1-3.2-4.3-5-7.5-4.2l-41 10.8-3.4 13.8c-1.8 7.3-6.3 13.5-12.8 17.4-4.5 2.7-9.5 4.1-14.5 4.1q-3.5 0-6.9-0.9l-17.1-4.2c-16.4-4.1-26.6-20.5-23.1-36.9-5.3-3.2-11.4-4.7-17.6-4.3-2.2 7.7-7.1 14.1-14 18.3-4.9 3-10.4 4.5-16.1 4.5q-3.7 0-7.5-0.9l-17.2-4.3c-15.1-3.7-24.3-19-20.6-34.2l4.1-16.5c1-4.2 3.6-7.7 7.2-9.9 3.7-2.2 8-2.9 12.2-1.8l43.8 10.8c8.6 2.1 13.8 10.8 11.7 19.4l-1.2 5c6.1 0.1 12.1 1.6 17.5 4.4l1.3-5.1c2.1-8.6 10.8-13.8 19.4-11.7l43.8 10.8c6.1 1.5 10.5 6.4 11.8 12.1l37.8-9.9c8.2-2.1 16.5 2.6 19 10.6l2.6 8.6c0.8 2.5-0.6 5.2-3.2 6zm-161.4-19.5l3.4-13.6c0.8-3.5-1.3-7-4.8-7.9l-43.8-10.8q-0.8-0.2-1.6-0.2c-1.2 0-2.3 0.3-3.3 0.9-1.5 0.9-2.6 2.4-3 4l-4.1 16.6c-2.5 10 3.7 20.2 13.7 22.7l17.2 4.2c5.6 1.4 11.5 0.5 16.4-2.5 5-3 8.5-7.7 9.9-13.4zm95.9 9.3q0-0.1 0-0.1c0.9-3.5-1.3-7-4.8-7.9l-43.8-10.8q-0.8-0.2-1.6-0.2c-2.9 0-5.6 2-6.3 5l-3.4 13.6c-2.8 11.7 4.3 23.5 16 26.4l17.1 4.2c4.9 1.2 9.9 0.4 14.2-2.2 4.3-2.5 7.3-6.6 8.5-11.5z"/><path class="e" d="m136.1 312.3c-15.7 0-32.2-0.7-49.3-1.9q-1.6-0.1-3.3-0.3c-18.1-1.3-37.2-3.5-56.7-6.3l-0.8-0.1q-3.6-0.5-7.3-1.1-0.9-0.1-1.7-0.3c-2.6-0.4-4.3-2.9-3.8-5.5 0.4-2.6 2.9-4.3 5.5-3.8q0.6 0.1 1.3 0.2 0 0 0.1 0 3.6 0.6 7.2 1.1l0.8 0.1c19.3 2.8 38.2 4.9 56.2 6.3q1.7 0.1 3.2 0.2c25 1.8 48.8 2.3 70.8 1.4q1.7 0 3.3-0.1 1 0 2-0.1l2.2-0.1c11-0.6 21.9-1.6 32.2-2.8q3.4-0.5 6.7-0.9c31.1-4.4 58.6-12 81.7-22.5 12.1-5.5 23-11.8 32.2-18.7 5-3.7 9.5-7.6 13.5-11.5 0.5-0.6 0.6-1.2 0.6-1.4 0-0.7-0.2-1.2-0.6-1.6-3.3-3.2-6.7-6.3-10-9.4-1.9-1.7-2.1-4.7-0.3-6.7 1.7-1.9 4.8-2.1 6.7-0.3 3.4 3.1 6.8 6.3 10.2 9.6 2.2 2.2 3.5 5.1 3.5 8.3 0 3-1.2 6-3.4 8.2-4.3 4.3-9.2 8.4-14.5 12.4-9.8 7.3-21.2 14-34 19.7-23.9 11-52.2 18.8-84.3 23.3q-3.3 0.5-6.8 0.9c-10.6 1.3-21.6 2.3-32.9 2.9l-2.2 0.1q-1 0-2.1 0.1-1.6 0.1-3.3 0.1-11 0.5-22.6 0.5z"/><path class="b" d="m274.1 381.5l13-13-106.5-106.6c-3.6-3.6-9.5-3.6-13.1 0-3.6 3.6-3.6 9.5 0 13.1z"/><path class="b" d="m274.1 381.5c0 0 1.5 32.7 36.3 55 0 0 10.6 1.9 22.1-9.6 11.5-11.5 9.6-22.1 9.6-22.1-22.3-34.8-55-36.3-55-36.3"/><path fill-rule="evenodd" class="c" d="m335.9 430.3c-9.9 9.8-19.4 11.1-23.8 11.1-1.5 0-2.4-0.2-2.5-0.2q-0.9-0.2-1.7-0.7c-32-20.5-37.5-49.1-38.4-56.8l-105.3-105.4c-5.5-5.4-5.5-14.3 0-19.7 2.6-2.7 6.1-4.1 9.9-4.1 3.7 0 7.2 1.4 9.9 4.1l105.3 105.3c7.7 0.9 36.3 6.4 56.8 38.4q0.6 0.8 0.7 1.7c0.1 0.5 2.2 13.2-10.9 26.3zm-165-158.7l103.2 103.2 6.3-6.3-103.2-103.2c-0.8-0.9-1.9-1.3-3.1-1.3-1.2 0-2.4 0.4-3.2 1.3-1.7 1.7-1.7 4.6 0 6.3zm166.6 134.8c-17.8-26.9-41.6-32-48.6-33l-9.9 9.9c1 7 6.1 30.8 33 48.6 2.3 0 9.3-0.5 17.1-8.4 7.8-7.8 8.5-14.7 8.4-17.1z"/><path class="f" d="m218.5 301.2c7.6-9.1 1.2-16.6-7.9-24.2-9.2-7.7-17.7-12.6-25.3-3.4-7.6 9.2-6.4 22.8 2.8 30.4 9.1 7.6 22.7 6.4 30.4-2.8z"/><path fill-rule="evenodd" class="g" d="m226.3 290.2c0.9 4.2 0 9-4.2 14.1-4.5 5.4-10.8 8.7-17.8 9.3q-1.2 0.1-2.5 0.1c-6.1 0-12-2.1-16.8-6.1-5.4-4.5-8.7-10.8-9.3-17.8-0.7-7 1.5-13.8 6-19.2 11.7-14.1 25.9-2.3 31.9 2.7 2.2 1.8 5.4 4.5 8 7.8 9.9-12.3 10-28 10-28.2 0-2.6 2.1-4.7 4.7-4.7 2.6 0 4.8 2.1 4.8 4.7 0 0.9 0 22-14.8 37.3zm-18.8-9.6c-6.2-5.1-10.1-7.2-13-7.2-2.2 0-3.9 1.2-5.5 3.2-2.9 3.5-4.3 7.9-3.9 12.3 0.4 4.5 2.6 8.6 6 11.4 3.5 2.9 7.8 4.3 12.3 3.9 4.5-0.5 8.5-2.6 11.4-6 3.8-4.6 3.7-8.4-7.3-17.6z"/></svg>