<svg version="1.2" xmlns="http://www.w3.org/2000/svg" viewBox="0 0 392 442" width="392" height="442"><style>.a{fill:#b1b9c6}.b{fill:#91a2b5}.c{fill:#fff}.d{fill:#678490}.e{fill:#605c5d}.f{fill:#d4afb7}.g{fill:#b78e98}.h{fill:#777677}.i{fill:#ffbf8c}.j{fill:#ffaa74}.k{fill:#e3e3e3}</style><path class="a" d="m278.2 281.9c0 0 63.5 40.2 42.5 70.2-21.1 30-93.2-10.5-93.2-10.5l-26.6-78.6z"/><path class="a" d="m123.6 281.9c0 0-63.6 40.2-42.5 70.2 21.1 30 93.2-10.5 93.2-10.5l26.6-78.6z"/><path class="a" d="m382.3 42c-15.7-19.8-76.1 6-102.9 18.9-12.1-3.5-28-6.2-46.3-8.2-18.2-2.2-34.3-3.2-46.8-2.5-23.2-18.6-76.2-57.5-96-41.7-19.7 15.6-5.1 66.4 2.7 89.2-14.6 19.3-21.7 41.5-23.9 61q-2.9 25.3 0.2 51.3c4.2 33.8 27.3 62 59.6 72.5q37.6 12.2 76 16.6 38.4 4.4 77.7 1.1c33.9-3 62.8-25.2 74.4-57.2q9-24.6 11.9-49.9c2.2-19.5 0.4-42.7-9.5-64.8 12.8-20.4 38.6-66.6 22.9-86.3z"/><path class="b" d="m249.9 66.8c-3.2 28-13.9 49.7-23.9 48.5-10-1.1-15.6-24.7-12.4-52.6q0.7-5.8 1.8-11.1 17.7 1.2 35.3 4.1c-0.1 3.6-0.4 7.3-0.8 11.1z"/><path class="b" d="m212 53.2c-3.2 27.9-13.9 49.6-23.9 48.5-9.6-1.1-15.1-23.1-12.6-49.7 6.4-0.9 12.9-1.3 19.6-1.2q8.6 0.1 17.1 0.6-0.1 0.9-0.2 1.8z"/><path class="b" d="m289.5 64.9c-3.6 26.5-13.9 46.8-23.6 45.7-10-1.2-15.5-24.7-12.3-52.6q0.1-0.9 0.2-1.8 9.7 1.6 19.3 3.8c5.7 1.2 11.1 2.9 16.4 4.9z"/><path class="c" d="m356.6 82.6c0 0 2.1 6.9 1.7 14.2-0.3 6.9-5 11.6-10.6 13.1-9.7-14-22.4-26.1-37.2-35.1 0.5-3.7 2.5-7.1 5.8-9.5 13.3-9.5 31.2-19.4 42.5-13.3 19.5 10.8-2.2 30.6-2.2 30.6z"/><path class="c" d="m106.2 53.8c0 0-3.7 6.2-5 13.5-1.2 6.8 2.3 12.4 7.4 15.2 12.7-11.5 27.7-20.3 44.2-25.8 0.3-3.7-0.8-7.5-3.5-10.5-10.8-12.4-26.1-26-38.4-22.6-21.4 6-4.7 30.2-4.7 30.2z"/><path fill-rule="evenodd" class="d" d="m364.8 128.7c10.8 25.7 10.5 50.4 8.8 64.9-2 17.2-6 34.4-12.1 51-6 16.6-16.6 31-30.5 41.6-7.1 5.6-15 9.9-23.4 13.1 27.3 26.5 24.6 44.7 17 55.5-6.2 8.8-16.1 13.2-29.6 13.2q-12.9 0-30.2-5.4c-20.9-6.4-38.9-16.5-39.7-16.9-2.2-1.3-3.1-4.2-1.8-6.4 1.3-2.3 4.2-3.1 6.5-1.9 13.3 7.5 43.1 21 65 21 9.4 0 17.4-2.5 22-9 4.8-6.9 4.5-14.9-0.8-24.6-3.8-6.9-10.3-14.5-18.8-22.3q-7 1.8-14.2 2.4c-11.4 1-22.8 1.4-34.2 1.4-14.9 0-29.8-0.8-44.5-2.5-25.8-2.9-51.6-8.6-76.8-16.8-16.8-5.4-31.5-15.4-42.6-29-11.1-13.6-18.1-30-20.3-47.5-2.1-17.5-2.2-35.2-0.2-52.4 1.7-14.5 7-38.7 23.3-61.2-9.5-28.4-21.2-75.6-0.4-92.1 10.4-8.3 27.4-5.8 51.9 7.5 17.9 9.6 36.1 23.1 48.6 33.1 12.1-0.5 27.4 0.4 45.9 2.6 18.5 2 33.6 4.6 45.2 7.8 14.5-6.9 35.2-15.8 54.8-21.2 27-7.4 44.1-5.9 52.4 4.4 16.5 20.9-5.6 64.2-21.3 89.7zm-23.4-21c-1.6-2.1-1.2-5.1 0.8-6.7 2.1-1.6 5.1-1.3 6.7 0.8 4.3 5.5 7.9 11.1 11 16.7 20.7-35 27.7-62.2 18.7-73.5-8.7-11-41.4-5.1-86.6 15.2 7.4 3.1 14.5 6.6 20.9 10.5 2.3 1.3 3 4.2 1.7 6.5-0.9 1.5-2.5 2.3-4.1 2.3-0.8 0-1.7-0.2-2.4-0.7-6.3-3.7-13.1-7.1-20.3-10.1-11.5-4.7-30.1-8.5-55.2-11.3-25.1-3-44-3.5-56.3-1.5-7.7 1.3-15.1 3.1-22.1 5.3-2.5 0.8-5.1-0.6-5.9-3.1-0.8-2.5 0.6-5.2 3.1-6 7.1-2.3 14.8-4.1 22.7-5.4-39.4-30-69.9-43.2-80.9-34.5-11.3 9-10.7 37.1 1.6 75.8 4.3-4.7 9-9.3 14.5-13.7 2-1.6 5-1.3 6.6 0.7 1.7 2.1 1.4 5.1-0.7 6.7-31.1 25-39.3 59.3-41.4 77.5-1.9 16.5-1.8 33.3 0.3 50.2 3.8 31.8 26 58.7 56.3 68.6 24.6 8 49.8 13.5 75 16.4 25.2 2.9 51 3.2 76.7 1 31.8-2.7 59.5-23.9 70.5-54 5.8-16 9.7-32.4 11.6-48.8 2.1-18.3 1.9-53.5-22.8-84.9z"/><path class="e" d="m295.9 215.5c1-9.2-5.6-17.6-14.9-18.7-9.3-1.1-17.7 5.6-18.8 14.9-1 9.3 5.6 17.7 14.9 18.7 9.3 1.1 17.7-5.6 18.8-14.9z"/><path class="e" d="m168.8 201c1.1-9.3-5.6-17.7-14.9-18.8-9.3-1.1-17.7 5.6-18.7 14.9-1.1 9.3 5.6 17.7 14.9 18.7 9.2 1.1 17.6-5.6 18.7-14.8z"/><path class="b" d="m318.8 247.6q-0.3 0-0.6 0l-26.5-3.1c-2.6-0.3-4.5-2.6-4.2-5.2 0.3-2.6 2.7-4.5 5.3-4.2l26.5 3.1c2.6 0.2 4.5 2.6 4.2 5.2-0.3 2.4-2.3 4.2-4.7 4.2z"/><path class="b" d="m311.1 272q-1.1 0-2.2-0.5l-20.8-10.5c-2.3-1.2-3.2-4.1-2.1-6.4 1.2-2.4 4.1-3.3 6.4-2.1l20.8 10.5c2.4 1.2 3.3 4.1 2.1 6.4-0.8 1.7-2.5 2.6-4.2 2.6z"/><path class="b" d="m133.2 226.3q-0.3 0-0.5 0l-26.6-3.1c-2.6-0.3-4.5-2.6-4.2-5.2 0.3-2.6 2.7-4.5 5.3-4.2l26.5 3c2.7 0.3 4.5 2.7 4.2 5.3-0.3 2.4-2.3 4.2-4.7 4.2z"/><path class="c" d="m272.7 179.6q-0.3 0-0.6 0l-13.9-1.6c-2.6-0.3-4.5-2.7-4.2-5.3 0.3-2.6 2.7-4.5 5.3-4.2l13.9 1.6c2.6 0.3 4.5 2.7 4.2 5.3-0.3 2.4-2.3 4.2-4.7 4.2z"/><path class="c" d="m180.9 169.1q-0.3 0-0.5-0.1l-14-1.6c-2.6-0.3-4.4-2.6-4.1-5.2 0.3-2.6 2.6-4.5 5.2-4.2l14 1.6c2.6 0.3 4.4 2.6 4.1 5.2-0.2 2.5-2.3 4.3-4.7 4.3z"/><path class="d" d="m224.4 194.6l-14.9-1.7c-2.6-0.3-5 1.6-5.3 4.2-0.3 2.6 1.6 5 4.2 5.3l3.9 0.4c-0.1 3-1.1 6.4-4.8 8.4-4.3 2.3-8.2 2.8-11.9 1.7-7.2-2.3-11.4-10.3-11.4-10.4-1.2-2.4-4.1-3.3-6.4-2.1-2.4 1.2-3.3 4-2.1 6.4 0.2 0.4 5.9 11.6 17 15.1q3.3 1.1 6.8 1.1 6.1 0 12.4-3.4c2.4-1.3 9.4-5.8 9.9-15.7l1.5 0.2q0.3 0 0.6 0c2.4 0 4.4-1.8 4.7-4.2 0.3-2.6-1.6-5-4.2-5.3z"/><path class="a" d="m192.5 314c0 16.6-3.5 27.6-18.2 27.6-14.7 0-26.6-13.4-26.6-30 0-16.6 11.9-30 26.6-30 14.7 0 18.2 15.9 18.2 32.4z"/><path fill-rule="evenodd" class="d" d="m197.2 314c0 8.9 0 32.3-22.9 32.3-17.3 0-31.4-15.6-31.4-34.7q0-0.6 0.1-1.1c-19.7 3.8-35.3 15.7-35.5 15.8-0.9 0.7-1.9 1-2.9 1-1.4 0-2.8-0.6-3.8-1.9-1.6-2-1.2-5 0.9-6.6 0.8-0.6 19.3-14.7 42.9-18.2 4.1-13.8 15.9-23.7 29.7-23.7 19 0 22.9 20.2 22.9 37.1zm-9.5 0c0-27.6-10.1-27.6-13.4-27.6-12.1 0-21.9 11.3-21.9 25.2 0 13.9 9.8 25.2 21.9 25.2 8.5 0 13.4-3.7 13.4-22.8z"/><path class="f" d="m305.4 391.2c0 25.1-12.1 45.4-27.1 45.4h-154.8c-15 0-27.2-20.3-27.2-45.4 0-25 12.2-45.3 27.2-45.3h154.8c15 0 27.1 20.3 27.1 45.3z"/><path class="g" d="m123.5 418.2c-1 0-1.9-0.3-2.7-0.9-2.2-1.5-2.7-4.4-1.2-6.6 2.3-3.3 4.7-10.2 4.7-19.5 0-9.2-2.4-16.1-4.7-19.4-1.5-2.2-1-5.2 1.2-6.6 2.1-1.5 5.1-1 6.6 1.2 1.9 2.8 6.4 10.8 6.4 24.8 0 14.1-4.5 22.1-6.4 24.9-0.9 1.4-2.4 2.1-3.9 2.1z"/><path fill-rule="evenodd" class="g" d="m278.3 441.4h-154.8c-17.9 0-31.9-22-31.9-50.2 0-28.1 14-50.1 31.9-50.1h154.8c17.8 0 31.9 22 31.9 50.1 0 28.2-14.1 50.2-31.9 50.2zm-154.8-90.8c-12.2 0-22.4 18.6-22.4 40.6 0 22.1 10.2 40.7 22.4 40.7h154.8c12.1 0 22.4-18.6 22.4-40.7 0-22-10.3-40.6-22.4-40.6z"/><path class="g" d="m214.4 418.2h-40.1c-2.6 0-4.8-2.2-4.8-4.8 0-2.6 2.2-4.7 4.8-4.7h40.1c2.7 0 4.8 2.1 4.8 4.7 0 2.6-2.1 4.8-4.8 4.8z"/><path class="g" d="m254.1 418.2h-11.3c-2.6 0-4.7-2.2-4.7-4.8 0-2.6 2.1-4.7 4.7-4.7h11.3c2.6 0 4.7 2.1 4.7 4.7 0 2.6-2.1 4.8-4.7 4.8z"/><path class="g" d="m277.2 399.4h-57.3c-2.6 0-4.7-2.1-4.7-4.7 0-2.6 2.1-4.8 4.7-4.8h57.3c2.6 0 4.8 2.2 4.8 4.8 0 2.6-2.2 4.7-4.8 4.7z"/><path class="h" d="m222.5 375.9c0-7-9.7-12.7-21.6-12.7-12 0-21.7 5.7-21.7 12.7 0 7.1 9.7 12.8 21.7 12.8 11.9 0 21.6-5.7 21.6-12.8z"/><path class="i" d="m213.2 363.8l-10.4 12.1-10.3-12.1v-90.5c0-5.7 4.6-10.3 10.3-10.3 5.8 0 10.4 4.6 10.4 10.3z"/><path fill-rule="evenodd" class="j" d="m202.8 380.7c-1.4 0-2.7-0.6-3.6-1.7l-10.3-12.2c-0.8-0.8-1.2-1.9-1.2-3v-90.5c0-8.3 6.8-15.1 15.1-15.1 8.4 0 15.1 6.8 15.1 15.1v90.5c0 1.1-0.4 2.2-1.1 3l-10.3 12.2c-0.9 1.1-2.3 1.7-3.7 1.7zm-5.6-18.7l5.6 6.6 5.6-6.6v-88.7c0-3.1-2.5-5.6-5.6-5.6-3 0-5.6 2.5-5.6 5.6zm16 1.8z"/><path class="a" d="m209.2 314c0 16.6 3.6 27.6 18.3 27.6 14.7 0 26.6-13.4 26.6-30 0-16.6-11.9-30-26.6-30-14.7 0-18.3 15.9-18.3 32.4z"/><path fill-rule="evenodd" class="d" d="m300.9 325.4c-0.9 1.3-2.3 1.9-3.7 1.9-1.1 0-2.1-0.3-2.9-1-0.2-0.1-15.8-12-35.5-15.8q0 0.5 0 1.1c0 19.1-14 34.7-31.3 34.7-23 0-23-23.4-23-32.3 0-16.9 4-37.1 23-37.1 13.8 0 25.5 9.9 29.7 23.7 23.6 3.5 42.1 17.6 42.9 18.2 2 1.6 2.4 4.6 0.8 6.6zm-51.6-13.8c0-13.9-9.8-25.2-21.8-25.2-3.4 0-13.5 0-13.5 27.6 0 19.1 4.9 22.8 13.5 22.8 12 0 21.8-11.3 21.8-25.2z"/><path class="k" d="m191.9 385c-24.8-33.6-133.2-8.1-147.8-44.2-19-47 25.5-55.9 10.4-85.8-15.2-29.9-72.6-61.3-48.1-128.6 15.7-43.2 83-48.9 67.1-79.7-2.6-4.9 3.1-10.1 7.7-7 26.1 17.6 64.2 51.1 31 80.1-47.6 41.7-41.7 82.5-7.3 97 34.5 14.4 44.1 29.2 25 65.6-19.1 36.3-7.6 61.2 14.8 65.1 22.4 3.9 54.9 23.5 47.2 37.5z"/></svg>